<svg width="20" height="10" viewBox="0 0 20 10" fill="none" xmlns="http://www.w3.org/2000/svg">
<path d="M18.0937 1.90611C17.2732 1.08567 16.1604 0.624745 15.0001 0.624745C13.8398 0.624745 12.727 1.08567 11.9065 1.90611L10.0093 3.8033L8.1119 1.90592C7.50005 1.29407 6.7205 0.877388 5.87183 0.708578C5.02316 0.539768 4.1435 0.626408 3.34407 0.957541C2.54464 1.28867 1.86136 1.84943 1.38063 2.56889C0.8999 3.28836 0.643311 4.13422 0.643311 4.99951C0.643311 5.86481 0.8999 6.71067 1.38063 7.43013C1.86136 8.1496 2.54464 8.71035 3.34407 9.04148C4.1435 9.37262 5.02316 9.45926 5.87183 9.29045C6.7205 9.12164 7.50005 8.70496 8.1119 8.09311L10.0091 6.19588L11.9064 8.09311C12.3121 8.50164 12.7945 8.82607 13.3259 9.04779C13.8573 9.2695 14.4272 9.38415 15.003 9.38514C15.5788 9.38614 16.1491 9.27347 16.6812 9.05359C17.2134 8.83371 17.6969 8.51095 18.1041 8.10382C18.5112 7.69669 18.834 7.21319 19.0539 6.68105C19.2738 6.14891 19.3865 5.57859 19.3855 5.00281C19.3846 4.42702 19.27 3.85709 19.0483 3.32569C18.8266 2.79429 18.5022 2.31188 18.0937 1.90611ZM7.22803 7.2094C6.79099 7.64643 6.23417 7.94405 5.62798 8.06463C5.02179 8.1852 4.39346 8.12331 3.82245 7.88679C3.25143 7.65026 2.76337 7.24972 2.42 6.73582C2.07662 6.22192 1.89334 5.61773 1.89334 4.99967C1.89334 4.38161 2.07662 3.77742 2.42 3.26352C2.76337 2.74962 3.25143 2.34908 3.82245 2.11255C4.39346 1.87603 5.02179 1.81414 5.62798 1.93471C6.23417 2.05529 6.79099 2.35291 7.22803 2.78994L9.38428 4.94619V5.05346L7.22803 7.2094ZM17.2096 7.2094C16.6235 7.79543 15.8287 8.12467 14.9999 8.12467C14.1711 8.12467 13.3763 7.79543 12.7902 7.2094L10.634 5.05315V4.94596L12.7902 2.78971C13.0804 2.49953 13.4249 2.26935 13.8041 2.11231C14.1833 1.95528 14.5896 1.87446 15 1.87447C15.4104 1.87449 15.8168 1.95533 16.1959 2.1124C16.5751 2.26946 16.9196 2.49966 17.2098 2.78987C17.4999 3.08007 17.7301 3.42458 17.8871 3.80374C18.0442 4.1829 18.125 4.58927 18.125 4.99966C18.125 5.41005 18.0441 5.81642 17.8871 6.19557C17.73 6.57472 17.4998 6.91922 17.2096 7.2094Z" fill="#3A3A55"/>
</svg>
