<svg width="24" height="26" viewBox="0 0 24 26" fill="none" xmlns="http://www.w3.org/2000/svg">
<path d="M21.1562 9.83521C21.1562 9.83521 20.4775 18.254 20.0837 21.8002C19.8962 23.494 18.85 24.4865 17.1362 24.5177C13.875 24.5765 10.61 24.5802 7.34998 24.5115C5.70123 24.4777 4.67248 23.4727 4.48873 21.809C4.09248 18.2315 3.41748 9.83521 3.41748 9.83521" stroke="#3A3A55" stroke-width="1.5" stroke-linecap="round" stroke-linejoin="round"/>
<path d="M22.8852 5.79956H1.68774" stroke="#3A3A55" stroke-width="1.5" stroke-linecap="round" stroke-linejoin="round"/>
<path d="M18.8007 5.7996C17.8195 5.7996 16.9745 5.10585 16.782 4.1446L16.4782 2.6246C16.2907 1.92335 15.6557 1.43835 14.932 1.43835H9.64072C8.91697 1.43835 8.28197 1.92335 8.09447 2.6246L7.79072 4.1446C7.59822 5.10585 6.75322 5.7996 5.77197 5.7996" stroke="#3A3A55" stroke-width="1.5" stroke-linecap="round" stroke-linejoin="round"/>
</svg>
