<svg width="30" height="30" viewBox="0 0 30 30" fill="none" xmlns="http://www.w3.org/2000/svg">
<g id="Iconly/Light-Outline/Wallet">
<g id="Wallet">
<path id="Fill 1" fill-rule="evenodd" clip-rule="evenodd" d="M27.3609 19.8696H22.3009C19.9297 19.8696 17.9997 17.9408 17.9984 15.5708C17.9984 13.1983 19.9284 11.2683 22.3009 11.2671H27.3609C27.8784 11.2671 28.2984 11.6871 28.2984 12.2046C28.2984 12.7221 27.8784 13.1421 27.3609 13.1421H22.3009C20.9622 13.1433 19.8734 14.2321 19.8734 15.5696C19.8734 16.9058 20.9634 17.9946 22.3009 17.9946H27.3609C27.8784 17.9946 28.2984 18.4146 28.2984 18.9321C28.2984 19.4496 27.8784 19.8696 27.3609 19.8696Z" fill="#3A3A55"/>
<path id="Fill 3" fill-rule="evenodd" clip-rule="evenodd" d="M22.8729 16.4297H22.4829C21.9654 16.4297 21.5454 16.0097 21.5454 15.4922C21.5454 14.9747 21.9654 14.5547 22.4829 14.5547H22.8729C23.3904 14.5547 23.8104 14.9747 23.8104 15.4922C23.8104 16.0097 23.3904 16.4297 22.8729 16.4297Z" fill="#3A3A55"/>
<g id="Group 7">
<mask id="mask0_1:548" style="mask-type:alpha" maskUnits="userSpaceOnUse" x="2" y="3" width="27" height="25">
<path id="Clip 6" fill-rule="evenodd" clip-rule="evenodd" d="M2.5 3.75H28.2982V27.7161H2.5V3.75Z" fill="white"/>
</mask>
<g mask="url(#mask0_1:548)">
<path id="Fill 5" fill-rule="evenodd" clip-rule="evenodd" d="M9.99701 5.625C6.89701 5.625 4.37451 8.1475 4.37451 11.2475V20.2188C4.37451 23.3188 6.89701 25.8413 9.99701 25.8413H20.802C23.902 25.8413 26.4233 23.3188 26.4233 20.2188V11.2475C26.4233 8.1475 23.902 5.625 20.802 5.625H9.99701ZM20.802 27.7163H9.99701C5.86326 27.7163 2.49951 24.3525 2.49951 20.2188V11.2475C2.49951 7.1125 5.86326 3.75 9.99701 3.75H20.802C24.9358 3.75 28.2983 7.1125 28.2983 11.2475V20.2188C28.2983 24.3525 24.9358 27.7163 20.802 27.7163Z" fill="#3A3A55"/>
</g>
</g>
<path id="Fill 8" fill-rule="evenodd" clip-rule="evenodd" d="M15.8558 11.2979H9.10706C8.58956 11.2979 8.16956 10.8779 8.16956 10.3604C8.16956 9.84285 8.58956 9.42285 9.10706 9.42285H15.8558C16.3733 9.42285 16.7933 9.84285 16.7933 10.3604C16.7933 10.8779 16.3733 11.2979 15.8558 11.2979Z" fill="#3A3A55"/>
</g>
</g>
</svg>
